<svg width="866" height="310" viewBox="0 0 866 310" fill="none" xmlns="http://www.w3.org/2000/svg">
<g clip-path="url(#clip0_3347_9599)">
<path d="M207.07 379.41C205.503 379.41 203.623 378.94 201.43 378C199.55 377.06 198.61 375.493 198.61 373.3C198.61 371.733 199.55 370.48 201.43 369.54C203.31 368.6 205.19 367.973 207.07 367.66C221.796 365.78 231.51 362.647 236.21 358.26C240.91 353.873 243.26 347.92 243.26 340.4V296.69C243.26 295.123 242.163 294.027 239.97 293.4C237.776 292.773 236.523 292.46 236.21 292.46C223.363 292.46 211.3 292.773 200.02 293.4C189.053 293.713 177.46 294.183 165.24 294.81C153.02 295.123 138.606 295.437 122 295.75C120.746 295.75 119.65 295.28 118.71 294.34C117.77 293.087 117.3 291.99 117.3 291.05C117.3 290.423 117.456 289.953 117.77 289.64C121.843 284.627 124.82 281.18 126.7 279.3C128.58 277.107 130.146 275.383 131.4 274.13C132.653 272.563 134.22 270.37 136.1 267.55L260.18 89.42C262.06 86.6 264.253 83.78 266.76 80.96C269.58 77.8267 272.086 76.26 274.28 76.26H284.15C285.716 76.26 285.873 77.3567 284.62 79.55C283.68 81.7433 283.21 82.84 283.21 82.84L156.31 265.2C155.996 265.827 155.683 266.767 155.37 268.02C155.056 268.96 155.37 269.43 156.31 269.43H237.62C238.873 269.43 240.126 269.117 241.38 268.49C242.633 267.55 243.26 266.61 243.26 265.67V192.82C243.26 189.373 243.416 187.023 243.73 185.77C244.356 184.517 245.61 183.42 247.49 182.48C252.19 179.973 257.203 178.407 262.53 177.78C267.856 176.84 271.616 176.37 273.81 176.37C277.256 176.37 279.293 178.877 279.92 183.89C280.546 188.903 280.86 196.423 280.86 206.45V267.08C280.86 268.96 281.643 269.9 283.21 269.9C286.656 270.213 289.946 270.37 293.08 270.37C296.213 270.37 299.19 270.37 302.01 270.37C306.396 270.37 310.783 270.37 315.17 270.37C319.87 270.057 324.726 269.743 329.74 269.43C333.186 269.43 334.91 270.683 334.91 273.19C334.91 275.697 334.126 278.36 332.56 281.18C331.306 284 329.896 286.35 328.33 288.23C326.763 290.11 325.666 291.05 325.04 291.05C321.593 291.05 317.833 291.05 313.76 291.05C309.686 290.737 305.77 290.58 302.01 290.58C299.19 290.58 296.526 290.737 294.02 291.05C291.513 291.05 289.32 291.207 287.44 291.52C286.186 291.833 284.776 292.303 283.21 292.93C281.956 293.557 281.33 294.027 281.33 294.34V338.52C281.33 347.607 283.366 353.873 287.44 357.32C291.826 360.767 300.286 364.213 312.82 367.66C314.7 367.973 316.58 368.757 318.46 370.01C320.34 371.263 321.28 372.673 321.28 374.24C321.28 375.493 320.496 376.747 318.93 378C317.676 378.94 316.11 379.41 314.23 379.41C305.456 379.41 298.406 379.097 293.08 378.47C288.066 378.157 283.366 377.843 278.98 377.53C274.593 377.217 268.64 377.06 261.12 377.06C253.286 377.06 246.863 377.217 241.85 377.53C237.15 377.843 232.293 378.157 227.28 378.47C222.266 379.097 215.53 379.41 207.07 379.41ZM435.24 384.58C419.26 384.58 405.317 380.193 393.41 371.42C381.817 362.647 372.103 351.053 364.27 336.64C356.437 321.913 350.64 305.777 346.88 288.23C343.12 270.683 341.24 253.293 341.24 236.06C341.24 218.2 343.12 200.183 346.88 182.01C350.64 163.837 356.437 147.23 364.27 132.19C372.417 117.15 382.757 105.087 395.29 96C407.823 86.6 422.707 81.9 439.94 81.9C455.92 81.9 469.707 86.2866 481.3 95.06C493.207 103.833 503.077 115.583 510.91 130.31C518.743 144.723 524.54 160.703 528.3 178.25C532.06 195.483 533.94 212.56 533.94 229.48C533.94 247.027 532.06 264.887 528.3 283.06C524.54 301.233 518.587 317.997 510.44 333.35C502.607 348.703 492.423 361.08 479.89 370.48C467.67 379.88 452.787 384.58 435.24 384.58ZM443.23 372.36C455.763 372.36 465.79 366.093 473.31 353.56C481.143 340.713 486.783 324.107 490.23 303.74C493.677 283.373 495.4 261.44 495.4 237.94C495.4 220.393 493.99 203.16 491.17 186.24C488.663 169.32 484.59 153.967 478.95 140.18C473.623 126.393 466.887 115.427 458.74 107.28C450.907 99.1333 441.663 95.06 431.01 95.06C418.477 95.06 408.45 101.17 400.93 113.39C393.723 125.61 388.397 141.903 384.95 162.27C381.817 182.323 380.25 204.1 380.25 227.6C380.25 245.147 381.503 262.537 384.01 279.77C386.83 297.003 390.747 312.67 395.76 326.77C401.087 340.557 407.667 351.68 415.5 360.14C423.333 368.287 432.577 372.36 443.23 372.36ZM630.51 379.41C628.943 379.41 627.063 378.94 624.87 378C622.99 377.06 622.05 375.493 622.05 373.3C622.05 371.733 622.99 370.48 624.87 369.54C626.75 368.6 628.63 367.973 630.51 367.66C645.237 365.78 654.95 362.647 659.65 358.26C664.35 353.873 666.7 347.92 666.7 340.4V296.69C666.7 295.123 665.603 294.027 663.41 293.4C661.217 292.773 659.963 292.46 659.65 292.46C646.803 292.46 634.74 292.773 623.46 293.4C612.493 293.713 600.9 294.183 588.68 294.81C576.46 295.123 562.047 295.437 545.44 295.75C544.187 295.75 543.09 295.28 542.15 294.34C541.21 293.087 540.74 291.99 540.74 291.05C540.74 290.423 540.897 289.953 541.21 289.64C545.283 284.627 548.26 281.18 550.14 279.3C552.02 277.107 553.587 275.383 554.84 274.13C556.093 272.563 557.66 270.37 559.54 267.55L683.62 89.42C685.5 86.6 687.693 83.78 690.2 80.96C693.02 77.8267 695.527 76.26 697.72 76.26H707.59C709.157 76.26 709.313 77.3567 708.06 79.55C707.12 81.7433 706.65 82.84 706.65 82.84L579.75 265.2C579.437 265.827 579.123 266.767 578.81 268.02C578.497 268.96 578.81 269.43 579.75 269.43H661.06C662.313 269.43 663.567 269.117 664.82 268.49C666.073 267.55 666.7 266.61 666.7 265.67V192.82C666.7 189.373 666.857 187.023 667.17 185.77C667.797 184.517 669.05 183.42 670.93 182.48C675.63 179.973 680.643 178.407 685.97 177.78C691.297 176.84 695.057 176.37 697.25 176.37C700.697 176.37 702.733 178.877 703.36 183.89C703.987 188.903 704.3 196.423 704.3 206.45V267.08C704.3 268.96 705.083 269.9 706.65 269.9C710.097 270.213 713.387 270.37 716.52 270.37C719.653 270.37 722.63 270.37 725.45 270.37C729.837 270.37 734.223 270.37 738.61 270.37C743.31 270.057 748.167 269.743 753.18 269.43C756.627 269.43 758.35 270.683 758.35 273.19C758.35 275.697 757.567 278.36 756 281.18C754.747 284 753.337 286.35 751.77 288.23C750.203 290.11 749.107 291.05 748.48 291.05C745.033 291.05 741.273 291.05 737.2 291.05C733.127 290.737 729.21 290.58 725.45 290.58C722.63 290.58 719.967 290.737 717.46 291.05C714.953 291.05 712.76 291.207 710.88 291.52C709.627 291.833 708.217 292.303 706.65 292.93C705.397 293.557 704.77 294.027 704.77 294.34V338.52C704.77 347.607 706.807 353.873 710.88 357.32C715.267 360.767 723.727 364.213 736.26 367.66C738.14 367.973 740.02 368.757 741.9 370.01C743.78 371.263 744.72 372.673 744.72 374.24C744.72 375.493 743.937 376.747 742.37 378C741.117 378.94 739.55 379.41 737.67 379.41C728.897 379.41 721.847 379.097 716.52 378.47C711.507 378.157 706.807 377.843 702.42 377.53C698.033 377.217 692.08 377.06 684.56 377.06C676.727 377.06 670.303 377.217 665.29 377.53C660.59 377.843 655.733 378.157 650.72 378.47C645.707 379.097 638.97 379.41 630.51 379.41Z" fill="#D8DCE2"/>
</g>
<path d="M0 309H866" stroke="#D8DCE2"/>
<defs>
<clipPath id="clip0_3347_9599">
<rect width="643" height="309" fill="white" transform="translate(112)"/>
</clipPath>
</defs>
</svg>
