<svg width="12" height="13" viewBox="0 0 12 13" fill="none" xmlns="http://www.w3.org/2000/svg">
<path d="M12 6.5C12 9.82812 9.30469 12.5 6 12.5C2.67188 12.5 0 9.82812 0 6.5C0 3.19531 2.67188 0.5 6 0.5C9.30469 0.5 12 3.19531 12 6.5ZM6.21094 9.47656C6.35156 9.54688 6.51562 9.5 6.63281 9.40625L9.25781 6.78125C9.39844 6.64062 9.39844 6.38281 9.25781 6.24219L6.63281 3.61719C6.51562 3.52344 6.35156 3.47656 6.21094 3.54688C6.07031 3.59375 6 3.73438 6 3.875V5.375H3.75C3.32812 5.375 3 5.72656 3 6.125V6.875C3 7.29688 3.32812 7.625 3.75 7.625H6V9.125C6 9.28906 6.07031 9.42969 6.21094 9.47656Z" fill="#78BE38"/>
</svg>
