<svg width="288" height="321" viewBox="0 0 288 321" fill="none" xmlns="http://www.w3.org/2000/svg">
<path opacity="0.1" d="M68.2328 75.1567H67.2903V224.014C67.2903 239.528 67.2903 270.555 74.352 284.135C81.885 298.678 97.8865 302.075 112.003 303.531V320.993C92.2313 320.5 72.9454 319.537 53.1739 319.045C35.2874 319.537 17.8793 320.5 0 320.993V303.531C17.8793 300.62 35.7658 298.678 40.4713 278.319C43.7629 264.74 43.7629 243.888 43.7629 231.764V38.7986C35.2945 21.822 16.9439 18.9176 0 17.4619V0.00713603C16.9439 0.492386 34.352 1.45575 51.296 1.941C71.0532 1.45575 90.3534 0.492386 110.118 0L202.356 226.433L287.069 0.00713603C304.948 0.492386 322.828 1.45575 340.707 1.941C359.536 1.45575 378.358 0.492386 400 0V17.4547C354.352 16.0061 356.237 39.762 355.766 79.5168V231.764C355.766 243.881 355.766 264.74 359.065 278.319C363.77 298.678 381.657 300.62 399.536 303.531V320.993C371.303 320.5 343.542 319.537 315.302 319.045C290.832 319.537 265.891 320.5 240 320.993V303.531C257.886 300.62 275.766 298.678 280.478 278.319C283.77 264.74 283.77 243.888 283.77 231.764V78.5534H282.835L189.182 321H166.59L68.2328 75.1567Z" fill="#F2F3F4"/>
</svg>
