<svg width="648" height="521" viewBox="0 0 648 521" fill="none" xmlns="http://www.w3.org/2000/svg">
<path d="M110.53 121.819H109.003V363.097C109.003 388.243 109.003 438.534 120.442 460.545C132.645 484.118 158.566 489.623 181.433 491.983V520.286C149.405 519.488 118.164 517.927 86.136 517.129C57.1619 517.927 28.9626 519.488 0 520.286V491.983C28.9626 487.264 57.9368 484.118 65.5592 451.118C70.8913 429.107 70.8913 395.31 70.8913 375.658V62.8873C57.1734 35.3705 27.4474 30.6629 0 28.3033V0.0115665C27.4474 0.798091 55.6466 2.35957 83.094 3.1461C115.099 2.35957 146.363 0.798091 178.379 0L327.796 367.018L465.021 0.0115665C493.984 0.798091 522.946 2.35957 551.909 3.1461C582.41 2.35957 612.9 0.798091 647.958 0V28.2918C574.013 25.9438 577.066 64.4488 576.303 128.886V375.658C576.303 395.298 576.303 429.107 581.647 451.118C589.269 484.118 618.243 487.264 647.206 491.983V520.286C601.472 519.488 556.501 517.927 510.755 517.129C471.117 517.927 430.715 519.488 388.775 520.286V491.983C417.749 487.264 446.711 484.118 454.345 451.118C459.678 429.107 459.678 395.31 459.678 375.658V127.325H458.162L306.456 520.298H269.859L110.53 121.819Z" fill="#e3e7eb"/>
</svg>
