<svg width="24" height="25" viewBox="0 0 24 25" fill="none" xmlns="http://www.w3.org/2000/svg">
<path d="M19 4.85779H5C4.20435 4.85779 3.44129 5.17386 2.87868 5.73647C2.31607 6.29908 2 7.06214 2 7.85779V17.8578C2 18.6534 2.31607 19.4165 2.87868 19.9791C3.44129 20.5417 4.20435 20.8578 5 20.8578H19C19.7956 20.8578 20.5587 20.5417 21.1213 19.9791C21.6839 19.4165 22 18.6534 22 17.8578V7.85779C22 7.06214 21.6839 6.29908 21.1213 5.73647C20.5587 5.17386 19.7956 4.85779 19 4.85779V4.85779ZM18.59 6.85779L12.71 12.7378C12.617 12.8315 12.5064 12.9059 12.3846 12.9567C12.2627 13.0074 12.132 13.0336 12 13.0336C11.868 13.0336 11.7373 13.0074 11.6154 12.9567C11.4936 12.9059 11.383 12.8315 11.29 12.7378L5.41 6.85779H18.59ZM20 17.8578C20 18.123 19.8946 18.3774 19.7071 18.5649C19.5196 18.7524 19.2652 18.8578 19 18.8578H5C4.73478 18.8578 4.48043 18.7524 4.29289 18.5649C4.10536 18.3774 4 18.123 4 17.8578V8.26779L9.88 14.1478C10.4425 14.7096 11.205 15.0251 12 15.0251C12.795 15.0251 13.5575 14.7096 14.12 14.1478L20 8.26779V17.8578Z" fill="black"/>
</svg>
