<svg width="40" height="40" viewBox="0 0 40 40" fill="none" xmlns="http://www.w3.org/2000/svg">
<rect width="40" height="40" rx="20" fill="#CB2027"/>
<path d="M10.4936 13C10.3194 13 10.1551 13.0302 9.99957 13.0922L13.113 16.3071L16.2609 19.5795L16.3183 19.6488L16.4102 19.741L16.5021 19.8331L16.6859 20.0289L19.3857 22.8058C19.4306 22.8338 19.5611 22.9547 19.6629 23.006C19.7941 23.0716 19.936 23.1325 20.0823 23.1376C20.2404 23.1432 20.4018 23.0978 20.5441 23.0285C20.6507 22.9765 20.6981 22.902 20.8216 22.8062L23.9464 19.5684L27.1058 16.3074L30.1501 13.1619C29.9525 13.0547 29.7313 12.9991 29.5067 13.0004L10.4936 13ZM9.54004 13.3916C9.20807 13.7072 9 14.1814 9 14.7168V25.2714C9 25.7047 9.13859 26.0985 9.36762 26.4004L9.80399 25.9856L13.0552 22.8168L15.9389 20.0168L15.8815 19.9478L12.7222 16.6869L9.56283 13.4145L9.54004 13.3916ZM30.5636 13.4956L27.4848 16.6872L24.3368 19.9482L24.2795 20.0057L27.2778 22.9208L30.5291 26.0896L30.7243 26.274C30.8993 25.9923 31 25.6453 31 25.2714V14.7168C31 14.2396 30.8353 13.8068 30.5636 13.4956ZM16.3065 20.3973L13.4346 23.1974L10.172 26.3661L9.75841 26.7695C9.97641 26.9104 10.2246 27 10.4936 27H29.5067C29.8302 27 30.1236 26.8754 30.3684 26.6774L30.1618 26.4701L26.8992 23.3013L23.9008 20.3977L21.201 23.1859C21.0551 23.2833 20.9573 23.3909 20.8147 23.4569C20.5849 23.5635 20.3334 23.6535 20.0805 23.6498C19.8268 23.6457 19.578 23.5462 19.3504 23.4341C19.2361 23.3777 19.1751 23.3216 19.0412 23.2092L16.3065 20.3973Z" fill="white"/>
</svg>
