<svg width="40" height="40" viewBox="0 0 40 40" fill="none" xmlns="http://www.w3.org/2000/svg">
<rect width="40" height="40" rx="20" fill="#1DA1F2"/>
<path d="M16.6608 27C23.4536 27 27.1683 21.6143 27.1683 16.9441C27.1683 16.7911 27.1651 16.6389 27.1579 16.4873C27.8807 15.9867 28.5045 15.367 29 14.6571C28.3383 14.9387 27.6262 15.1281 26.8792 15.2136C27.6417 14.776 28.227 14.0838 28.5032 13.2588C27.7783 13.6703 26.9852 13.9604 26.1582 14.1166C25.4843 13.4297 24.5248 13 23.4625 13C21.4231 13 19.7693 14.5828 19.7693 16.5338C19.7693 16.8111 19.8017 17.0809 19.8651 17.3397C16.7957 17.1918 14.0741 15.7855 12.2526 13.647C11.9245 14.1864 11.752 14.7994 11.7526 15.4234C11.7526 16.6496 12.4045 17.732 13.396 18.3653C12.8095 18.3482 12.2359 18.1966 11.7234 17.9233C11.7229 17.9381 11.7229 17.9526 11.7229 17.9684C11.7229 19.68 12.9958 21.1091 14.6856 21.4329C14.3683 21.5157 14.0408 21.5575 13.7119 21.5573C13.4743 21.5573 13.2428 21.5349 13.0178 21.4936C13.488 22.8979 14.8513 23.9198 16.4676 23.9483C15.2037 24.8964 13.6114 25.4612 11.8809 25.4612C11.5865 25.4614 11.2924 25.445 11 25.4122C12.6344 26.4148 14.5751 26.9998 16.661 26.9998" fill="white"/>
</svg>
