<svg width="11" height="11" viewBox="0 0 11 11" fill="none" xmlns="http://www.w3.org/2000/svg">
<g id="Frame" clip-path="url(#clip0_3991_2734)">
<g id="Clip path group">
<mask id="mask0_3991_2734" style="mask-type:luminance" maskUnits="userSpaceOnUse" x="0" y="0" width="11" height="11">
<g id="clip0_103_9">
<path id="Vector" d="M10.2622 0.5H0.262207V10.5H10.2622V0.5Z" fill="white"/>
</g>
</mask>
<g mask="url(#mask0_3991_2734)">
<g id="Group">
<path id="Vector_2" d="M4.7588 0.806432C4.97005 0.397856 5.55436 0.397856 5.76561 0.806432L7.11086 3.40822C7.16476 3.51248 7.24971 3.59743 7.35401 3.65134L9.95576 4.99659C10.3644 5.20785 10.3644 5.79215 9.95576 6.0034L7.35401 7.34865C7.24971 7.40255 7.16476 7.4875 7.11086 7.5918L5.76561 10.1936C5.55436 10.6021 4.97005 10.6021 4.7588 10.1936L3.41355 7.5918C3.35964 7.4875 3.27469 7.40255 3.17043 7.34865L0.568639 6.0034C0.160063 5.79215 0.160063 5.20785 0.568639 4.99659L3.17043 3.65134C3.27469 3.59743 3.35964 3.51248 3.41355 3.40822L4.7588 0.806432Z" fill="#78BE38"/>
</g>
</g>
</g>
</g>
<defs>
<clipPath id="clip0_3991_2734">
<rect width="10" height="10" fill="white" transform="translate(0.262207 0.5)"/>
</clipPath>
</defs>
</svg>
