<svg width="40" height="40" viewBox="0 0 40 40" fill="none" xmlns="http://www.w3.org/2000/svg">
<rect width="40" height="40" rx="20" fill="#AA7627"/>
<path d="M10 20.97V14.99C10 12.23 12.24 10 15 10H25C27.76 10 30 12.23 30 14.99V21.97C30 24.72 27.76 26.95 25 26.95H23.5C23.19 26.95 22.89 27.1 22.7 27.35L21.2 29.34C20.54 30.22 19.46 30.22 18.8 29.34L17.3 27.35C17.14 27.13 16.78 26.95 16.5 26.95H15C12.24 26.95 10 24.72 10 21.97V20.97Z" fill="white"/>
<path d="M20 20C19.44 20 19 19.55 19 19C19 18.45 19.45 18 20 18C20.55 18 21 18.45 21 19C21 19.55 20.56 20 20 20Z" fill="#AA7627"/>
<path d="M24 20C23.44 20 23 19.55 23 19C23 18.45 23.45 18 24 18C24.55 18 25 18.45 25 19C25 19.55 24.56 20 24 20Z" fill="#AA7627"/>
<path d="M16 20C15.44 20 15 19.55 15 19C15 18.45 15.45 18 16 18C16.55 18 17 18.45 17 19C17 19.55 16.56 20 16 20Z" fill="#AA7627"/>
</svg>
