<svg width="30" height="24" viewBox="0 0 30 24" fill="none" xmlns="http://www.w3.org/2000/svg">
<path d="M5.15315 5.61919H5.08272V16.7487C5.08272 17.9086 5.08272 20.2284 5.61039 21.2438C6.17327 22.3311 7.36892 22.5851 8.42371 22.6939V23.9995C6.94636 23.9627 5.50528 23.8906 4.02792 23.8538C2.69142 23.8906 1.39066 23.9627 0.0546875 23.9995V22.6939C1.39066 22.4762 2.72716 22.3311 3.07876 20.8089C3.32472 19.7936 3.32472 18.2346 3.32472 17.3281V2.90083C2.69195 1.63155 1.32077 1.4144 0.0546875 1.30556V0.000533535C1.32077 0.0368139 2.62152 0.108841 3.8876 0.145121C5.36389 0.108841 6.80604 0.0368139 8.28286 0L15.1751 16.9296L21.5049 0.000533535C22.8409 0.0368139 24.1769 0.108841 25.5128 0.145121C26.9198 0.108841 28.3262 0.0368139 29.9433 0V1.30503C26.5324 1.19672 26.6733 2.97286 26.6381 5.94518V17.3281C26.6381 18.2341 26.6381 19.7936 26.8846 20.8089C27.2362 22.3311 28.5727 22.4762 29.9086 22.6939V23.9995C27.799 23.9627 25.7247 23.8906 23.6145 23.8538C21.7861 23.8906 19.9225 23.9627 17.9879 23.9995V22.6939C19.3244 22.4762 20.6603 22.3311 21.0125 20.8089C21.2584 19.7936 21.2584 18.2346 21.2584 17.3281V5.87315H21.1885L14.1907 24H12.5026L5.15315 5.61919Z" fill="#AEDF82"/>
</svg>
