<svg width="16" height="15" viewBox="0 0 16 15" fill="none" xmlns="http://www.w3.org/2000/svg">
<path d="M7.59375 1.03125C12.1875 0.8125 16 4.46875 16 9V13C16 14.125 15.0938 15 14 15H13C12.4375 15 12 14.5625 12 14V9C12 8.46875 12.4375 8 13 8H14C14.3438 8 14.6562 8.125 14.9375 8.28125C14.5625 4.65625 11.4062 1.84375 7.625 2.03125C4.1875 2.1875 1.5 4.90625 1.0625 8.25C1.34375 8.09375 1.65625 8 2 8H3C3.53125 8 4 8.46875 4 9V14C4 14.5625 3.53125 15 3 15H2C0.875 15 0 14.125 0 13V9.25C0 4.9375 3.28125 1.25 7.59375 1.03125ZM2 9C1.4375 9 1 9.46875 1 10.0312V13C1 13.5625 1.4375 14 2 14H3V9H2ZM15 13V10.0312C15 9.46875 14.5312 9 14 9H13V14H14C14.5312 14 15 13.5625 15 13Z" fill="#8DCB7E"/>
</svg>
