<svg width="40" height="40" viewBox="0 0 40 40" fill="none" xmlns="http://www.w3.org/2000/svg">
<rect width="40" height="40" rx="20" fill="#006699"/>
<path d="M15.6321 27.9996V17.2041H12.2022V27.9996H15.6324H15.6321ZM13.9178 15.7304C15.1137 15.7304 15.8581 14.9014 15.8581 13.8654C15.8357 12.8058 15.1137 12 13.9406 12C12.7667 12 12 12.8058 12 13.8653C12 14.9013 12.7442 15.7303 13.8954 15.7303H13.9176L13.9178 15.7304ZM17.5305 27.9996H20.9602V21.9715C20.9602 21.6493 20.9826 21.3263 21.0732 21.0961C21.321 20.4512 21.8853 19.7836 22.8331 19.7836C24.0738 19.7836 24.5705 20.7735 24.5705 22.2249V27.9996H28V21.8098C28 18.494 26.3082 16.951 24.0516 16.951C22.2016 16.951 21.389 18.0328 20.9376 18.7696H20.9604V17.2044H17.5307C17.5755 18.2172 17.5305 28 17.5305 28L17.5305 27.9996Z" fill="white"/>
</svg>
