<svg width="12" height="11" viewBox="0 0 12 11" fill="none" xmlns="http://www.w3.org/2000/svg">
<path d="M7.19531 0.320312C7.45312 0.203125 7.78125 0.25 7.99219 0.460938L11.7422 3.83594C11.9062 3.97656 12 4.16406 12 4.375C12 4.60938 11.9062 4.79688 11.7422 4.9375L7.99219 8.3125C7.78125 8.52344 7.45312 8.57031 7.19531 8.45312C6.91406 8.33594 6.75 8.05469 6.75 7.75V6.25H4.5C3.25781 6.25 2.25 7.25781 2.25 8.5C2.25 9.22656 2.53125 9.625 2.76562 9.83594C2.88281 9.95312 3 10.1172 3 10.3047C3 10.5625 2.78906 10.75 2.53125 10.75C2.46094 10.75 2.39062 10.75 2.34375 10.7266C1.89844 10.4688 0 9.29688 0 6.625C0 4.35156 1.82812 2.5 4.125 2.5H6.75V1C6.75 0.71875 6.91406 0.4375 7.19531 0.320312Z" fill="#0A1631"/>
</svg>
