<svg width="25" height="25" viewBox="0 0 25 25" fill="none" xmlns="http://www.w3.org/2000/svg">
<path d="M12.3856 2.85693C11.0724 2.85693 9.77203 3.11559 8.55877 3.61814C7.34552 4.12069 6.24313 4.85728 5.31454 5.78587C3.43918 7.66123 2.38561 10.2048 2.38561 12.8569C2.37687 15.1661 3.1764 17.4055 4.64561 19.1869L2.64561 21.1869C2.50685 21.3276 2.41285 21.5061 2.37548 21.7001C2.33811 21.8941 2.35903 22.0948 2.43561 22.2769C2.51867 22.4569 2.65331 22.6081 2.82245 22.7113C2.9916 22.8146 3.18761 22.8653 3.38561 22.8569H12.3856C15.0378 22.8569 17.5813 21.8034 19.4567 19.928C21.332 18.0526 22.3856 15.5091 22.3856 12.8569C22.3856 10.2048 21.332 7.66123 19.4567 5.78587C17.5813 3.9105 15.0378 2.85693 12.3856 2.85693V2.85693ZM12.3856 20.8569H5.79561L6.72561 19.9269C6.91186 19.7396 7.0164 19.4861 7.0164 19.2219C7.0164 18.9577 6.91186 18.7043 6.72561 18.5169C5.41619 17.209 4.60078 15.4875 4.4183 13.6457C4.23582 11.804 4.69755 9.95594 5.72484 8.41646C6.75212 6.87697 8.2814 5.74129 10.0521 5.20291C11.8228 4.66452 13.7255 4.75674 15.4358 5.46385C17.1462 6.17096 18.5585 7.44921 19.432 9.08082C20.3056 10.7124 20.5865 12.5965 20.2267 14.4119C19.867 16.2274 18.8889 17.862 17.4591 19.0372C16.0294 20.2124 14.2364 20.8555 12.3856 20.8569V20.8569ZM17.3856 11.8569H7.38561C7.12039 11.8569 6.86604 11.9623 6.6785 12.1498C6.49097 12.3374 6.38561 12.5917 6.38561 12.8569C6.38561 13.1222 6.49097 13.3765 6.6785 13.564C6.86604 13.7516 7.12039 13.8569 7.38561 13.8569H17.3856C17.6508 13.8569 17.9052 13.7516 18.0927 13.564C18.2803 13.3765 18.3856 13.1222 18.3856 12.8569C18.3856 12.5917 18.2803 12.3374 18.0927 12.1498C17.9052 11.9623 17.6508 11.8569 17.3856 11.8569ZM15.3856 15.8569H9.38561C9.12039 15.8569 8.86604 15.9623 8.6785 16.1498C8.49097 16.3374 8.38561 16.5917 8.38561 16.8569C8.38561 17.1222 8.49097 17.3765 8.6785 17.564C8.86604 17.7516 9.12039 17.8569 9.38561 17.8569H15.3856C15.6508 17.8569 15.9052 17.7516 16.0927 17.564C16.2803 17.3765 16.3856 17.1222 16.3856 16.8569C16.3856 16.5917 16.2803 16.3374 16.0927 16.1498C15.9052 15.9623 15.6508 15.8569 15.3856 15.8569ZM9.38561 9.85693H15.3856C15.6508 9.85693 15.9052 9.75158 16.0927 9.56404C16.2803 9.3765 16.3856 9.12215 16.3856 8.85693C16.3856 8.59172 16.2803 8.33736 16.0927 8.14983C15.9052 7.96229 15.6508 7.85693 15.3856 7.85693H9.38561C9.12039 7.85693 8.86604 7.96229 8.6785 8.14983C8.49097 8.33736 8.38561 8.59172 8.38561 8.85693C8.38561 9.12215 8.49097 9.3765 8.6785 9.56404C8.86604 9.75158 9.12039 9.85693 9.38561 9.85693V9.85693Z" fill="black"/>
</svg>
